<mxfile host="app.diagrams.net" modified="2023-05-31T16:41:13.119Z" agent="Mozilla/5.0 (Windows NT 10.0; Win64; x64) AppleWebKit/537.36 (KHTML, like Gecko) Chrome/113.0.0.0 Safari/537.36" etag="IJ5hVdvUex9ofIkJYe-P" version="21.3.5" type="github">
  <diagram name="PÃ¡gina-1" id="wpmBzWk61GQLYgsDoiEM">
    <mxGraphModel dx="1933" dy="438" grid="1" gridSize="10" guides="1" tooltips="1" connect="1" arrows="1" fold="1" page="1" pageScale="1" pageWidth="827" pageHeight="1169" math="0" shadow="0">
      <root>
        <mxCell id="0" />
        <mxCell id="1" parent="0" />
        <mxCell id="17zT4q1r8Zggeit4E8dh-3" value="" style="whiteSpace=wrap;html=1;aspect=fixed;" parent="1" vertex="1">
          <mxGeometry x="-810" y="70" width="807" height="807" as="geometry" />
        </mxCell>
        <mxCell id="eFzgHs3NkfedYMX0GZzM-8" style="edgeStyle=orthogonalEdgeStyle;rounded=0;orthogonalLoop=1;jettySize=auto;html=1;exitX=1;exitY=0.5;exitDx=0;exitDy=0;entryX=0;entryY=0;entryDx=0;entryDy=15;entryPerimeter=0;" parent="1" source="eFzgHs3NkfedYMX0GZzM-1" target="eFzgHs3NkfedYMX0GZzM-5" edge="1">
          <mxGeometry relative="1" as="geometry" />
        </mxCell>
        <mxCell id="eFzgHs3NkfedYMX0GZzM-48" style="edgeStyle=orthogonalEdgeStyle;rounded=0;orthogonalLoop=1;jettySize=auto;html=1;exitX=0.5;exitY=0;exitDx=0;exitDy=0;" parent="1" source="eFzgHs3NkfedYMX0GZzM-1" target="eFzgHs3NkfedYMX0GZzM-2" edge="1">
          <mxGeometry relative="1" as="geometry" />
        </mxCell>
        <mxCell id="eFzgHs3NkfedYMX0GZzM-1" value="Camaras UI" style="shape=module;align=left;spacingLeft=20;align=center;verticalAlign=top;whiteSpace=wrap;html=1;" parent="1" vertex="1">
          <mxGeometry x="-690" y="297" width="100" height="50" as="geometry" />
        </mxCell>
        <mxCell id="eFzgHs3NkfedYMX0GZzM-2" value="Servidor RTMP" style="shape=module;align=left;spacingLeft=20;align=center;verticalAlign=top;whiteSpace=wrap;html=1;" parent="1" vertex="1">
          <mxGeometry x="-690" y="177" width="100" height="50" as="geometry" />
        </mxCell>
        <mxCell id="eFzgHs3NkfedYMX0GZzM-33" style="edgeStyle=orthogonalEdgeStyle;rounded=0;orthogonalLoop=1;jettySize=auto;html=1;exitX=0.5;exitY=0;exitDx=0;exitDy=0;" parent="1" source="eFzgHs3NkfedYMX0GZzM-3" target="eFzgHs3NkfedYMX0GZzM-7" edge="1">
          <mxGeometry relative="1" as="geometry" />
        </mxCell>
        <mxCell id="eFzgHs3NkfedYMX0GZzM-34" style="edgeStyle=orthogonalEdgeStyle;rounded=0;orthogonalLoop=1;jettySize=auto;html=1;exitX=1;exitY=0.5;exitDx=0;exitDy=0;entryX=0;entryY=0.5;entryDx=0;entryDy=0;entryPerimeter=0;" parent="1" source="eFzgHs3NkfedYMX0GZzM-3" target="eFzgHs3NkfedYMX0GZzM-27" edge="1">
          <mxGeometry relative="1" as="geometry" />
        </mxCell>
        <mxCell id="eFzgHs3NkfedYMX0GZzM-35" style="edgeStyle=orthogonalEdgeStyle;rounded=0;orthogonalLoop=1;jettySize=auto;html=1;exitX=0.75;exitY=0;exitDx=0;exitDy=0;entryX=0;entryY=1;entryDx=10;entryDy=0;entryPerimeter=0;" parent="1" source="eFzgHs3NkfedYMX0GZzM-3" target="eFzgHs3NkfedYMX0GZzM-9" edge="1">
          <mxGeometry relative="1" as="geometry">
            <mxPoint x="-360" y="357" as="targetPoint" />
            <Array as="points">
              <mxPoint x="-390" y="587" />
              <mxPoint x="-390" y="357" />
            </Array>
          </mxGeometry>
        </mxCell>
        <mxCell id="eFzgHs3NkfedYMX0GZzM-3" value="Camaras Commands Processor" style="shape=module;align=left;spacingLeft=20;align=center;verticalAlign=top;whiteSpace=wrap;html=1;" parent="1" vertex="1">
          <mxGeometry x="-535" y="587" width="100" height="50" as="geometry" />
        </mxCell>
        <mxCell id="eFzgHs3NkfedYMX0GZzM-49" style="edgeStyle=orthogonalEdgeStyle;rounded=0;orthogonalLoop=1;jettySize=auto;html=1;exitX=0.5;exitY=0;exitDx=0;exitDy=0;entryX=0;entryY=0;entryDx=0;entryDy=52.5;entryPerimeter=0;" parent="1" source="eFzgHs3NkfedYMX0GZzM-4" target="eFzgHs3NkfedYMX0GZzM-6" edge="1">
          <mxGeometry relative="1" as="geometry" />
        </mxCell>
        <mxCell id="eFzgHs3NkfedYMX0GZzM-50" style="edgeStyle=orthogonalEdgeStyle;rounded=0;orthogonalLoop=1;jettySize=auto;html=1;exitX=0.5;exitY=1;exitDx=0;exitDy=0;" parent="1" source="eFzgHs3NkfedYMX0GZzM-4" target="eFzgHs3NkfedYMX0GZzM-37" edge="1">
          <mxGeometry relative="1" as="geometry" />
        </mxCell>
        <mxCell id="eFzgHs3NkfedYMX0GZzM-4" value="Camaras Command Notifier" style="shape=module;align=left;spacingLeft=20;align=center;verticalAlign=top;whiteSpace=wrap;html=1;" parent="1" vertex="1">
          <mxGeometry x="-700" y="536" width="100" height="50" as="geometry" />
        </mxCell>
        <mxCell id="eFzgHs3NkfedYMX0GZzM-10" style="edgeStyle=orthogonalEdgeStyle;rounded=0;orthogonalLoop=1;jettySize=auto;html=1;exitX=1;exitY=0.25;exitDx=0;exitDy=0;entryX=0;entryY=0;entryDx=0;entryDy=15;entryPerimeter=0;" parent="1" source="eFzgHs3NkfedYMX0GZzM-5" target="eFzgHs3NkfedYMX0GZzM-9" edge="1">
          <mxGeometry relative="1" as="geometry" />
        </mxCell>
        <mxCell id="eFzgHs3NkfedYMX0GZzM-30" style="edgeStyle=orthogonalEdgeStyle;rounded=0;orthogonalLoop=1;jettySize=auto;html=1;exitX=0.5;exitY=1;exitDx=0;exitDy=0;" parent="1" source="eFzgHs3NkfedYMX0GZzM-5" target="eFzgHs3NkfedYMX0GZzM-6" edge="1">
          <mxGeometry relative="1" as="geometry" />
        </mxCell>
        <mxCell id="eFzgHs3NkfedYMX0GZzM-5" value="Camaras API" style="shape=module;align=left;spacingLeft=20;align=center;verticalAlign=top;whiteSpace=wrap;html=1;" parent="1" vertex="1">
          <mxGeometry x="-535" y="297" width="100" height="50" as="geometry" />
        </mxCell>
        <mxCell id="eFzgHs3NkfedYMX0GZzM-15" style="edgeStyle=orthogonalEdgeStyle;rounded=0;orthogonalLoop=1;jettySize=auto;html=1;exitX=0.5;exitY=1;exitDx=0;exitDy=0;" parent="1" source="eFzgHs3NkfedYMX0GZzM-9" target="eFzgHs3NkfedYMX0GZzM-11" edge="1">
          <mxGeometry relative="1" as="geometry" />
        </mxCell>
        <mxCell id="eFzgHs3NkfedYMX0GZzM-9" value="Commands API" style="shape=module;align=left;spacingLeft=20;align=center;verticalAlign=top;whiteSpace=wrap;html=1;" parent="1" vertex="1">
          <mxGeometry x="-290" y="307" width="100" height="50" as="geometry" />
        </mxCell>
        <mxCell id="eFzgHs3NkfedYMX0GZzM-22" style="edgeStyle=orthogonalEdgeStyle;rounded=0;orthogonalLoop=1;jettySize=auto;html=1;exitX=0.75;exitY=1;exitDx=0;exitDy=0;entryX=0.03;entryY=1;entryDx=0;entryDy=0;entryPerimeter=0;" parent="1" source="eFzgHs3NkfedYMX0GZzM-11" target="eFzgHs3NkfedYMX0GZzM-21" edge="1">
          <mxGeometry relative="1" as="geometry" />
        </mxCell>
        <mxCell id="eFzgHs3NkfedYMX0GZzM-28" style="edgeStyle=orthogonalEdgeStyle;rounded=0;orthogonalLoop=1;jettySize=auto;html=1;exitX=0.5;exitY=1;exitDx=0;exitDy=0;" parent="1" source="eFzgHs3NkfedYMX0GZzM-11" target="eFzgHs3NkfedYMX0GZzM-27" edge="1">
          <mxGeometry relative="1" as="geometry" />
        </mxCell>
        <mxCell id="eFzgHs3NkfedYMX0GZzM-11" value="Preservice" style="shape=module;align=left;spacingLeft=20;align=center;verticalAlign=top;whiteSpace=wrap;html=1;" parent="1" vertex="1">
          <mxGeometry x="-290" y="407" width="100" height="50" as="geometry" />
        </mxCell>
        <mxCell id="eFzgHs3NkfedYMX0GZzM-25" style="edgeStyle=orthogonalEdgeStyle;rounded=0;orthogonalLoop=1;jettySize=auto;html=1;exitX=0.5;exitY=0.84;exitDx=0;exitDy=0;exitPerimeter=0;" parent="1" source="eFzgHs3NkfedYMX0GZzM-13" target="eFzgHs3NkfedYMX0GZzM-21" edge="1">
          <mxGeometry relative="1" as="geometry" />
        </mxCell>
        <mxCell id="eFzgHs3NkfedYMX0GZzM-26" style="edgeStyle=orthogonalEdgeStyle;rounded=0;orthogonalLoop=1;jettySize=auto;html=1;exitX=0.5;exitY=0;exitDx=0;exitDy=0;exitPerimeter=0;entryX=1;entryY=0.5;entryDx=0;entryDy=0;" parent="1" source="eFzgHs3NkfedYMX0GZzM-13" target="eFzgHs3NkfedYMX0GZzM-2" edge="1">
          <mxGeometry relative="1" as="geometry" />
        </mxCell>
        <mxCell id="eFzgHs3NkfedYMX0GZzM-13" value="" style="shape=mxgraph.signs.transportation.truck_1;html=1;pointerEvents=1;fillColor=#000000;strokeColor=none;verticalLabelPosition=bottom;verticalAlign=top;align=center;" parent="1" vertex="1">
          <mxGeometry x="-140" y="341" width="99" height="51" as="geometry" />
        </mxCell>
        <mxCell id="eFzgHs3NkfedYMX0GZzM-14" value="" style="image;points=[];aspect=fixed;html=1;align=center;shadow=0;dashed=0;image=img/lib/allied_telesis/security/Surveillance_Camera_Ceiling.svg;" parent="1" vertex="1">
          <mxGeometry x="-110" y="341" width="23.33" height="22.2" as="geometry" />
        </mxCell>
        <mxCell id="eFzgHs3NkfedYMX0GZzM-16" value="" style="image;points=[];aspect=fixed;html=1;align=center;shadow=0;dashed=0;image=img/lib/allied_telesis/security/Surveillance_Camera_Ceiling.svg;" parent="1" vertex="1">
          <mxGeometry x="-140" y="341" width="23.33" height="22.2" as="geometry" />
        </mxCell>
        <mxCell id="eFzgHs3NkfedYMX0GZzM-23" style="edgeStyle=orthogonalEdgeStyle;rounded=0;orthogonalLoop=1;jettySize=auto;html=1;exitX=0.07;exitY=0.5;exitDx=0;exitDy=0;exitPerimeter=0;entryX=1;entryY=1;entryDx=0;entryDy=0;" parent="1" source="eFzgHs3NkfedYMX0GZzM-21" target="eFzgHs3NkfedYMX0GZzM-11" edge="1">
          <mxGeometry relative="1" as="geometry" />
        </mxCell>
        <mxCell id="eFzgHs3NkfedYMX0GZzM-24" style="edgeStyle=orthogonalEdgeStyle;rounded=0;orthogonalLoop=1;jettySize=auto;html=1;exitX=0.08;exitY=0.15;exitDx=0;exitDy=0;exitPerimeter=0;entryX=0.14;entryY=1;entryDx=0;entryDy=0;entryPerimeter=0;" parent="1" source="eFzgHs3NkfedYMX0GZzM-21" target="eFzgHs3NkfedYMX0GZzM-13" edge="1">
          <mxGeometry relative="1" as="geometry">
            <Array as="points">
              <mxPoint x="-130" y="455" />
              <mxPoint x="-130" y="427" />
              <mxPoint x="-126" y="427" />
            </Array>
          </mxGeometry>
        </mxCell>
        <mxCell id="eFzgHs3NkfedYMX0GZzM-21" value="" style="fontColor=#0066CC;verticalAlign=top;verticalLabelPosition=bottom;labelPosition=center;align=center;html=1;outlineConnect=0;fillColor=#CCCCCC;strokeColor=#6881B3;gradientColor=none;gradientDirection=north;strokeWidth=2;shape=mxgraph.networks.satellite_dish;" parent="1" vertex="1">
          <mxGeometry x="-116.66999999999996" y="447" width="40" height="50" as="geometry" />
        </mxCell>
        <mxCell id="eFzgHs3NkfedYMX0GZzM-27" value="&lt;div style=&quot;color: rgb(0, 0, 0); background-color: rgb(255, 255, 254); line-height: 18px;&quot;&gt;queuing.traffic.devicerichresponse&lt;/div&gt;" style="sketch=0;points=[[0,0,0],[0.25,0,0],[0.5,0,0],[0.75,0,0],[1,0,0],[0,1,0],[0.25,1,0],[0.5,1,0],[0.75,1,0],[1,1,0],[0,0.25,0],[0,0.5,0],[0,0.75,0],[1,0.25,0],[1,0.5,0],[1,0.75,0]];outlineConnect=0;fontColor=#232F3E;gradientColor=#945DF2;gradientDirection=north;fillColor=#5A30B5;strokeColor=#ffffff;dashed=0;verticalLabelPosition=bottom;verticalAlign=top;align=center;html=1;fontSize=12;fontStyle=0;aspect=fixed;shape=mxgraph.aws4.resourceIcon;resIcon=mxgraph.aws4.managed_streaming_for_kafka;" parent="1" vertex="1">
          <mxGeometry x="-305" y="587" width="50" height="50" as="geometry" />
        </mxCell>
        <mxCell id="eFzgHs3NkfedYMX0GZzM-29" value="" style="group" parent="1" vertex="1" connectable="0">
          <mxGeometry x="-620" y="417" width="90" height="110" as="geometry" />
        </mxCell>
        <mxCell id="eFzgHs3NkfedYMX0GZzM-6" value="" style="shape=cylinder3;whiteSpace=wrap;html=1;boundedLbl=1;backgroundOutline=1;size=15;" parent="eFzgHs3NkfedYMX0GZzM-29" vertex="1">
          <mxGeometry x="15" width="60" height="80" as="geometry" />
        </mxCell>
        <mxCell id="eFzgHs3NkfedYMX0GZzM-7" value="Camaras DB" style="text;html=1;align=center;verticalAlign=middle;resizable=0;points=[];autosize=1;strokeColor=none;fillColor=none;" parent="eFzgHs3NkfedYMX0GZzM-29" vertex="1">
          <mxGeometry y="80" width="90" height="30" as="geometry" />
        </mxCell>
        <mxCell id="eFzgHs3NkfedYMX0GZzM-37" value="&lt;div style=&quot;color: rgb(0, 0, 0); background-color: rgb(255, 255, 254); line-height: 18px;&quot;&gt;topico para informes&lt;/div&gt;" style="sketch=0;points=[[0,0,0],[0.25,0,0],[0.5,0,0],[0.75,0,0],[1,0,0],[0,1,0],[0.25,1,0],[0.5,1,0],[0.75,1,0],[1,1,0],[0,0.25,0],[0,0.5,0],[0,0.75,0],[1,0.25,0],[1,0.5,0],[1,0.75,0]];outlineConnect=0;fontColor=#232F3E;gradientColor=#945DF2;gradientDirection=north;fillColor=#5A30B5;strokeColor=#ffffff;dashed=0;verticalLabelPosition=bottom;verticalAlign=top;align=center;html=1;fontSize=12;fontStyle=0;aspect=fixed;shape=mxgraph.aws4.resourceIcon;resIcon=mxgraph.aws4.managed_streaming_for_kafka;" parent="1" vertex="1">
          <mxGeometry x="-675" y="681" width="50" height="50" as="geometry" />
        </mxCell>
        <mxCell id="XbGyFWum7I3pr3T7V1KH-2" style="edgeStyle=orthogonalEdgeStyle;rounded=0;orthogonalLoop=1;jettySize=auto;html=1;exitX=1;exitY=0.5;exitDx=0;exitDy=0;" parent="1" source="XbGyFWum7I3pr3T7V1KH-1" edge="1">
          <mxGeometry relative="1" as="geometry">
            <mxPoint x="-290" y="347" as="targetPoint" />
            <Array as="points">
              <mxPoint x="-410" y="347" />
            </Array>
          </mxGeometry>
        </mxCell>
        <mxCell id="XbGyFWum7I3pr3T7V1KH-4" style="edgeStyle=orthogonalEdgeStyle;rounded=0;orthogonalLoop=1;jettySize=auto;html=1;entryX=1;entryY=0.5;entryDx=0;entryDy=0;entryPerimeter=0;" parent="1" source="XbGyFWum7I3pr3T7V1KH-1" target="eFzgHs3NkfedYMX0GZzM-6" edge="1">
          <mxGeometry relative="1" as="geometry" />
        </mxCell>
        <mxCell id="XbGyFWum7I3pr3T7V1KH-1" value="Commands Service Actives" style="shape=module;align=left;spacingLeft=20;align=center;verticalAlign=top;whiteSpace=wrap;html=1;jettyWidth=20;jettyHeight=10;" parent="1" vertex="1">
          <mxGeometry x="-520" y="432" width="110" height="50" as="geometry" />
        </mxCell>
        <mxCell id="17zT4q1r8Zggeit4E8dh-2" value="&lt;b&gt;&lt;font style=&quot;font-size: 24px;&quot;&gt;Diagrama Arquitectura DasCam&lt;/font&gt;&lt;/b&gt;" style="text;html=1;align=center;verticalAlign=middle;resizable=0;points=[];autosize=1;strokeColor=none;fillColor=none;" parent="1" vertex="1">
          <mxGeometry x="-550" y="150" width="380" height="40" as="geometry" />
        </mxCell>
      </root>
    </mxGraphModel>
  </diagram>
</mxfile>
